<svg width="100%" height="100%" id="svg" viewBox="0 0 1440 690" xmlns="http://www.w3.org/2000/svg" class="transition duration-300 ease-in-out delay-150"><defs><linearGradient id="gradient" x1="0%" y1="50%" x2="100%" y2="50%"><stop offset="5%" stop-color="#b7c0ee"></stop><stop offset="95%" stop-color="#495b88"></stop></linearGradient></defs><path d="M 0,700 L 0,175 C 33.928622518189655,141.2835368109508 67.85724503637931,107.56707362190159 130,115 C 192.1427549636207,122.43292637809841 282.4996423726724,171.01524232334447 340,226 C 397.5003576273276,280.98475767665553 422.14418547293127,342.37195708472063 466,349 C 509.85581452706873,355.62804291527937 572.9236157356024,307.4969293377729 631,320 C 689.0763842643976,332.5030706622271 742.161351584659,405.6403255641879 805,431 C 867.838648415341,456.3596744358121 940.4309779257615,433.9417684054754 983,477 C 1025.5690220742385,520.0582315945246 1038.114736712295,628.5926008139105 1092,664 C 1145.885263287705,699.4073991860895 1241.1100752250586,661.6878283388827 1306,668 C 1370.8899247749414,674.3121716611173 1405.4449623874707,724.6560858305586 1440,775 L 1440,700 L 0,700 Z" stroke="none" stroke-width="0" fill="url(#gradient)" fill-opacity="0.53" class="transition-all duration-300 ease-in-out delay-150 path-0"></path><defs><linearGradient id="gradient" x1="0%" y1="50%" x2="100%" y2="50%"><stop offset="5%" stop-color="#b7c0ee"></stop><stop offset="95%" stop-color="#495b88"></stop></linearGradient></defs><path d="M 0,700 L 0,408 C 47.44723147120483,376.63179183623134 94.89446294240966,345.2635836724627 142,360 C 189.10553705759034,374.7364163275373 235.86937970156617,435.57745714638054 302,479 C 368.1306202984338,522.4225428536195 453.62801825132567,548.426587742015 508,562 C 562.3719817486743,575.573412257985 585.6185472931311,576.7161918855593 637,616 C 688.3814527068689,655.2838081144407 767.8977925761501,732.708644715748 829,756 C 890.1022074238499,779.291355284252 932.7902824022689,748.449229251449 978,764 C 1023.2097175977311,779.550770748551 1070.941077814774,841.4944382784561 1116,884 C 1161.058922185226,926.5055617215439 1203.4454063386358,949.5730176347267 1257,967 C 1310.5545936613642,984.4269823652733 1375.2772968306822,996.2134911826366 1440,1008 L 1440,700 L 0,700 Z" stroke="none" stroke-width="0" fill="url(#gradient)" fill-opacity="1" class="transition-all duration-300 ease-in-out delay-150 path-1"></path></svg>
