<svg width="100%" height="100%" id="svg" viewBox="0 0 1440 590" xmlns="http://www.w3.org/2000/svg" class="transition duration-300 ease-in-out delay-150"><defs><linearGradient id="gradient" x1="2%" y1="35%" x2="98%" y2="65%"><stop offset="5%" stop-color="#b7c0ee"></stop><stop offset="95%" stop-color="#495b88"></stop></linearGradient></defs><path d="M 0,600 L 0,150 C 124.88038277511961,147.56937799043064 249.76076555023923,145.13875598086128 339,173 C 428.2392344497608,200.86124401913872 481.83732057416273,259.0143540669856 555,279 C 628.1626794258373,298.9856459330144 720.88995215311,280.8038277511962 817,298 C 913.11004784689,315.1961722488038 1012.6028708133972,367.77033492822966 1117,399 C 1221.3971291866028,430.22966507177034 1330.6985645933014,440.11483253588517 1440,450 L 1440,600 L 0,600 Z" stroke="none" stroke-width="0" fill="url(#gradient)" fill-opacity="0.53" class="transition-all duration-300 ease-in-out delay-150 path-0"></path><defs><linearGradient id="gradient" x1="2%" y1="35%" x2="98%" y2="65%"><stop offset="5%" stop-color="#b7c0ee"></stop><stop offset="95%" stop-color="#495b88"></stop></linearGradient></defs><path d="M 0,600 L 0,350 C 65.17703349282297,347.89473684210526 130.35406698564594,345.7894736842105 236,352 C 341.64593301435406,358.2105263157895 487.76076555023917,372.7368421052631 613,418 C 738.2392344497608,463.2631578947369 842.6028708133972,539.2631578947369 914,551 C 985.3971291866028,562.7368421052631 1023.8277511961724,510.2105263157895 1106,516 C 1188.1722488038276,521.7894736842105 1314.0861244019138,585.8947368421052 1440,650 L 1440,600 L 0,600 Z" stroke="none" stroke-width="0" fill="url(#gradient)" fill-opacity="1" class="transition-all duration-300 ease-in-out delay-150 path-1"></path></svg>
