<svg xmlns="http://www.w3.org/2000/svg" xmlns:xlink="http://www.w3.org/1999/xlink" width="40" zoomAndPan="magnify" viewBox="0 0 30 30.000001" height="40" preserveAspectRatio="xMidYMid meet" version="1.0"><defs><g/><clipPath id="6ad06c47c5"><path d="M 22 11 L 29.515625 11 L 29.515625 18 L 22 18 Z M 22 11 " clip-rule="nonzero"/></clipPath></defs><g fill="#292929" fill-opacity="1"><g transform="translate(7.958579, 17.833165)"><g><path d="M 0.4375 -2.25 C 0.320312 -2.664062 0.289062 -3.078125 0.34375 -3.484375 C 0.40625 -3.890625 0.535156 -4.265625 0.734375 -4.609375 C 0.941406 -4.953125 1.207031 -5.25 1.53125 -5.5 C 1.851562 -5.757812 2.21875 -5.941406 2.625 -6.046875 C 3.070312 -6.171875 3.5 -6.203125 3.90625 -6.140625 C 4.3125 -6.078125 4.675781 -5.953125 5 -5.765625 C 5.332031 -5.578125 5.617188 -5.335938 5.859375 -5.046875 C 6.097656 -4.753906 6.269531 -4.441406 6.375 -4.109375 C 6.070312 -4.109375 5.742188 -4.09375 5.390625 -4.0625 C 5.035156 -4.039062 4.710938 -4 4.421875 -3.9375 C 4.660156 -3.9375 4.878906 -3.890625 5.078125 -3.796875 C 5.273438 -3.710938 5.445312 -3.59375 5.59375 -3.4375 C 5.738281 -3.289062 5.851562 -3.113281 5.9375 -2.90625 C 6.019531 -2.707031 6.070312 -2.5 6.09375 -2.28125 C 6.125 -1.820312 6.023438 -1.421875 5.796875 -1.078125 C 5.578125 -0.742188 5.28125 -0.484375 4.90625 -0.296875 C 4.539062 -0.109375 4.128906 0 3.671875 0.03125 C 3.210938 0.0625 2.769531 0.00390625 2.34375 -0.140625 C 1.914062 -0.296875 1.523438 -0.546875 1.171875 -0.890625 C 0.828125 -1.234375 0.582031 -1.6875 0.4375 -2.25 Z M 1.1875 -3.171875 C 1.207031 -2.921875 1.242188 -2.691406 1.296875 -2.484375 C 1.453125 -1.867188 1.695312 -1.382812 2.03125 -1.03125 C 2.363281 -0.6875 2.722656 -0.453125 3.109375 -0.328125 C 3.492188 -0.203125 3.878906 -0.175781 4.265625 -0.25 C 4.660156 -0.320312 5 -0.46875 5.28125 -0.6875 C 5.570312 -0.90625 5.785156 -1.1875 5.921875 -1.53125 C 6.054688 -1.875 6.054688 -2.257812 5.921875 -2.6875 C 5.859375 -2.914062 5.75 -3.125 5.59375 -3.3125 C 5.445312 -3.5 5.257812 -3.632812 5.03125 -3.71875 C 4.8125 -3.8125 4.5625 -3.847656 4.28125 -3.828125 C 4 -3.804688 3.703125 -3.703125 3.390625 -3.515625 C 3.085938 -3.335938 2.789062 -3.210938 2.5 -3.140625 C 2.207031 -3.066406 1.9375 -3.035156 1.6875 -3.046875 C 1.59375 -3.054688 1.503906 -3.066406 1.421875 -3.078125 C 1.335938 -3.097656 1.257812 -3.128906 1.1875 -3.171875 Z M 5.390625 -4.171875 C 5.273438 -4.441406 5.125 -4.703125 4.9375 -4.953125 C 4.75 -5.203125 4.535156 -5.414062 4.296875 -5.59375 C 4.066406 -5.769531 3.8125 -5.894531 3.53125 -5.96875 C 3.25 -6.050781 2.957031 -6.050781 2.65625 -5.96875 C 2.363281 -5.882812 2.117188 -5.75 1.921875 -5.5625 C 1.734375 -5.382812 1.582031 -5.171875 1.46875 -4.921875 C 1.351562 -4.671875 1.269531 -4.398438 1.21875 -4.109375 C 1.175781 -3.828125 1.164062 -3.546875 1.1875 -3.265625 C 1.332031 -3.203125 1.5 -3.160156 1.6875 -3.140625 C 1.925781 -3.117188 2.1875 -3.144531 2.46875 -3.21875 C 2.757812 -3.289062 3.050781 -3.414062 3.34375 -3.59375 C 3.695312 -3.789062 4.050781 -3.929688 4.40625 -4.015625 C 4.769531 -4.097656 5.097656 -4.148438 5.390625 -4.171875 Z M 5.390625 -4.171875 "/></g></g></g><g fill="#292929" fill-opacity="1"><g transform="translate(14.433406, 17.833165)"><g><path d="M 0.3125 -5.671875 L 1.515625 -6.125 L 1.515625 -1.09375 C 1.515625 -0.882812 1.523438 -0.710938 1.546875 -0.578125 C 1.566406 -0.453125 1.59375 -0.351562 1.625 -0.28125 C 1.65625 -0.207031 1.6875 -0.160156 1.71875 -0.140625 C 1.757812 -0.117188 1.789062 -0.109375 1.8125 -0.109375 L 1.8125 0 L 0.328125 0 L 0.328125 -0.109375 C 0.359375 -0.109375 0.390625 -0.117188 0.421875 -0.140625 C 0.453125 -0.160156 0.484375 -0.207031 0.515625 -0.28125 C 0.546875 -0.351562 0.570312 -0.453125 0.59375 -0.578125 C 0.625 -0.710938 0.640625 -0.882812 0.640625 -1.09375 L 0.640625 -5.03125 C 0.597656 -5.257812 0.546875 -5.40625 0.484375 -5.46875 C 0.429688 -5.539062 0.390625 -5.578125 0.359375 -5.578125 Z M 0.984375 -7.15625 C 0.804688 -7.15625 0.660156 -7.210938 0.546875 -7.328125 C 0.429688 -7.441406 0.375 -7.585938 0.375 -7.765625 C 0.375 -7.929688 0.429688 -8.070312 0.546875 -8.1875 C 0.660156 -8.300781 0.804688 -8.359375 0.984375 -8.359375 C 1.148438 -8.359375 1.289062 -8.300781 1.40625 -8.1875 C 1.519531 -8.070312 1.578125 -7.929688 1.578125 -7.765625 C 1.578125 -7.585938 1.519531 -7.441406 1.40625 -7.328125 C 1.289062 -7.210938 1.148438 -7.15625 0.984375 -7.15625 Z M 0.984375 -7.15625 "/></g></g></g><g fill="#292929" fill-opacity="1"><g transform="translate(16.341466, 17.833165)"><g><path d="M 1.515625 -9.1875 L 1.515625 -2.734375 L 2.921875 -3.984375 L 4.546875 -5.421875 C 4.722656 -5.566406 4.835938 -5.703125 4.890625 -5.828125 C 4.941406 -5.953125 4.875 -6.015625 4.6875 -6.015625 L 4.6875 -6.125 L 5.875 -6.125 L 5.875 -6.015625 C 5.75 -6.015625 5.609375 -5.976562 5.453125 -5.90625 C 5.304688 -5.84375 5.171875 -5.769531 5.046875 -5.6875 C 4.929688 -5.613281 4.828125 -5.535156 4.734375 -5.453125 C 4.648438 -5.378906 4.597656 -5.332031 4.578125 -5.3125 L 3.359375 -4.234375 L 4.8125 -1.78125 L 5.296875 -0.96875 C 5.441406 -0.707031 5.570312 -0.5 5.6875 -0.34375 C 5.8125 -0.1875 5.910156 -0.109375 5.984375 -0.109375 L 5.984375 0 L 4.484375 0 L 4.484375 -0.109375 C 4.535156 -0.109375 4.515625 -0.238281 4.421875 -0.5 C 4.335938 -0.757812 4.175781 -1.09375 3.9375 -1.5 L 2.6875 -3.640625 L 1.515625 -2.609375 L 1.515625 -1.09375 C 1.515625 -0.882812 1.523438 -0.710938 1.546875 -0.578125 C 1.566406 -0.453125 1.59375 -0.351562 1.625 -0.28125 C 1.65625 -0.207031 1.6875 -0.160156 1.71875 -0.140625 C 1.757812 -0.117188 1.789062 -0.109375 1.8125 -0.109375 L 1.8125 0 L 0.34375 0 L 0.34375 -0.109375 C 0.363281 -0.109375 0.390625 -0.117188 0.421875 -0.140625 C 0.453125 -0.160156 0.484375 -0.207031 0.515625 -0.28125 C 0.546875 -0.351562 0.570312 -0.453125 0.59375 -0.578125 C 0.625 -0.710938 0.640625 -0.882812 0.640625 -1.09375 L 0.640625 -8.09375 C 0.597656 -8.3125 0.546875 -8.453125 0.484375 -8.515625 C 0.429688 -8.585938 0.394531 -8.625 0.375 -8.625 L 0.3125 -8.734375 Z M 1.515625 -9.1875 "/></g></g></g><g clip-path="url(#6ad06c47c5)"><g fill="#292929" fill-opacity="1"><g transform="translate(22.421947, 17.833165)"><g><path d="M 0.4375 -2.328125 C 0.320312 -2.742188 0.289062 -3.15625 0.34375 -3.5625 C 0.40625 -3.96875 0.535156 -4.34375 0.734375 -4.6875 C 0.941406 -5.03125 1.207031 -5.328125 1.53125 -5.578125 C 1.851562 -5.835938 2.21875 -6.019531 2.625 -6.125 C 3.039062 -6.238281 3.453125 -6.265625 3.859375 -6.203125 C 4.273438 -6.148438 4.65625 -6.019531 5 -5.8125 C 5.34375 -5.613281 5.640625 -5.351562 5.890625 -5.03125 C 6.148438 -4.707031 6.335938 -4.34375 6.453125 -3.9375 C 6.554688 -3.519531 6.578125 -3.101562 6.515625 -2.6875 C 6.460938 -2.28125 6.335938 -1.90625 6.140625 -1.5625 C 5.941406 -1.226562 5.679688 -0.929688 5.359375 -0.671875 C 5.035156 -0.421875 4.664062 -0.238281 4.25 -0.125 C 3.832031 -0.0195312 3.421875 0.00390625 3.015625 -0.046875 C 2.609375 -0.109375 2.226562 -0.238281 1.875 -0.4375 C 1.53125 -0.632812 1.226562 -0.894531 0.96875 -1.21875 C 0.71875 -1.539062 0.539062 -1.910156 0.4375 -2.328125 Z M 5.578125 -3.703125 C 5.492188 -4.003906 5.363281 -4.3125 5.1875 -4.625 C 5.007812 -4.945312 4.789062 -5.226562 4.53125 -5.46875 C 4.28125 -5.71875 3.992188 -5.898438 3.671875 -6.015625 C 3.347656 -6.128906 3.007812 -6.140625 2.65625 -6.046875 C 2.300781 -5.953125 2.015625 -5.773438 1.796875 -5.515625 C 1.578125 -5.253906 1.414062 -4.957031 1.3125 -4.625 C 1.21875 -4.289062 1.171875 -3.9375 1.171875 -3.5625 C 1.171875 -3.195312 1.210938 -2.863281 1.296875 -2.5625 C 1.378906 -2.25 1.507812 -1.929688 1.6875 -1.609375 C 1.863281 -1.285156 2.078125 -1.003906 2.328125 -0.765625 C 2.585938 -0.535156 2.878906 -0.359375 3.203125 -0.234375 C 3.523438 -0.117188 3.863281 -0.113281 4.21875 -0.21875 C 4.570312 -0.3125 4.859375 -0.484375 5.078125 -0.734375 C 5.304688 -0.992188 5.46875 -1.289062 5.5625 -1.625 C 5.664062 -1.96875 5.710938 -2.320312 5.703125 -2.6875 C 5.703125 -3.0625 5.660156 -3.398438 5.578125 -3.703125 Z M 5.578125 -3.703125 "/></g></g></g></g><g fill="#292929" fill-opacity="1"><g transform="translate(1.314227, 17.840163)"><g><path d="M 6.953125 -8.8125 C 6.941406 -8.8125 6.914062 -8.796875 6.875 -8.765625 C 6.84375 -8.742188 6.8125 -8.695312 6.78125 -8.625 C 6.75 -8.5625 6.722656 -8.46875 6.703125 -8.34375 C 6.679688 -8.21875 6.671875 -8.046875 6.671875 -7.828125 L 6.671875 -1.09375 C 6.671875 -0.882812 6.679688 -0.710938 6.703125 -0.578125 C 6.722656 -0.453125 6.75 -0.351562 6.78125 -0.28125 C 6.8125 -0.21875 6.84375 -0.171875 6.875 -0.140625 C 6.914062 -0.117188 6.941406 -0.109375 6.953125 -0.109375 L 6.953125 0 L 5.453125 0 L 5.453125 -0.109375 C 5.472656 -0.109375 5.5 -0.117188 5.53125 -0.140625 C 5.5625 -0.171875 5.59375 -0.21875 5.625 -0.28125 C 5.65625 -0.351562 5.679688 -0.453125 5.703125 -0.578125 C 5.734375 -0.710938 5.75 -0.882812 5.75 -1.09375 L 5.75 -5.234375 L 1.578125 -5.234375 L 1.578125 -1.09375 C 1.578125 -0.882812 1.585938 -0.710938 1.609375 -0.578125 C 1.628906 -0.453125 1.65625 -0.351562 1.6875 -0.28125 C 1.726562 -0.21875 1.765625 -0.171875 1.796875 -0.140625 C 1.828125 -0.117188 1.851562 -0.109375 1.875 -0.109375 L 1.875 0 L 0.375 0 L 0.375 -0.109375 C 0.394531 -0.109375 0.421875 -0.117188 0.453125 -0.140625 C 0.492188 -0.171875 0.523438 -0.21875 0.546875 -0.28125 C 0.578125 -0.351562 0.601562 -0.453125 0.625 -0.578125 C 0.65625 -0.710938 0.671875 -0.882812 0.671875 -1.09375 L 0.671875 -7.828125 C 0.671875 -8.046875 0.65625 -8.21875 0.625 -8.34375 C 0.601562 -8.46875 0.578125 -8.5625 0.546875 -8.625 C 0.523438 -8.695312 0.492188 -8.742188 0.453125 -8.765625 C 0.421875 -8.796875 0.394531 -8.8125 0.375 -8.8125 L 0.375 -8.921875 L 1.875 -8.921875 L 1.875 -8.8125 C 1.851562 -8.8125 1.828125 -8.796875 1.796875 -8.765625 C 1.765625 -8.742188 1.726562 -8.695312 1.6875 -8.625 C 1.65625 -8.5625 1.628906 -8.46875 1.609375 -8.34375 C 1.585938 -8.21875 1.578125 -8.046875 1.578125 -7.828125 L 1.578125 -5.359375 L 5.75 -5.359375 L 5.75 -7.828125 C 5.75 -8.046875 5.734375 -8.21875 5.703125 -8.34375 C 5.679688 -8.46875 5.65625 -8.5625 5.625 -8.625 C 5.59375 -8.695312 5.5625 -8.742188 5.53125 -8.765625 C 5.5 -8.796875 5.472656 -8.8125 5.453125 -8.8125 L 5.453125 -8.921875 L 6.953125 -8.921875 Z M 6.953125 -8.8125 "/></g></g></g></svg>