<svg xmlns="http://www.w3.org/2000/svg" xmlns:xlink="http://www.w3.org/1999/xlink" width="40" zoomAndPan="magnify" viewBox="0 0 30 30.000001" height="40" preserveAspectRatio="xMidYMid meet" version="1.0">
<defs>
    <filter id="subtleShadow" x="-20%" y="-20%" width="200%" height="200%">
      <feGaussianBlur in="SourceAlpha" stdDeviation="0.5" result="blur"/>
      <feOffset in="blur" dx="0.5" dy="0.5" result="offsetBlur"/>
      <feComponentTransfer>
        <feFuncA type="linear" slope="0.3"/>
      </feComponentTransfer>
      <feMerge>
        <feMergeNode in="offsetBlur"/>
        <feMergeNode in="SourceGraphic"/>
      </feMerge>
    </filter>
  </defs>

  <g fill="#74A57F" fill-opacity="1" filter="url(#subtleShadow)"><g transform="translate(11.682273, 28.677097)"><g>
<path d="M 0.984375 -17.6875 L 4.71875 -19.109375 L 4.71875 -3.40625 C 4.71875 -2.75 4.75 -2.222656 4.8125 -1.828125 C 4.882812 -1.429688 4.972656 -1.117188 5.078125 -0.890625 C 5.179688 -0.671875 5.285156 -0.523438 5.390625 -0.453125 C 5.492188 -0.390625 5.570312 -0.359375 5.625 -0.359375 L 5.625 0 L 1.03125 0 L 1.03125 -0.359375 C 1.113281 -0.359375 1.207031 -0.390625 1.3125 -0.453125 C 1.414062 -0.523438 1.515625 -0.671875 1.609375 -0.890625 C 1.703125 -1.117188 1.785156 -1.429688 1.859375 -1.828125 C 1.941406 -2.222656 1.984375 -2.75 1.984375 -3.40625 L 1.984375 -15.671875 C 1.878906 -16.378906 1.734375 -16.835938 1.546875 -17.046875 C 1.359375 -17.265625 1.210938 -17.375 1.109375 -17.375 Z M 3.046875 -22.328125 C 2.523438 -22.328125 2.082031 -22.503906 1.71875 -22.859375 C 1.363281 -23.210938 1.1875 -23.65625 1.1875 -24.1875 C 1.1875 -24.71875 1.363281 -25.160156 1.71875 -25.515625 C 2.082031 -25.867188 2.523438 -26.046875 3.046875 -26.046875 C 3.578125 -26.046875 4.019531 -25.867188 4.375 -25.515625 C 4.738281 -25.160156 4.921875 -24.71875 4.921875 -24.1875 C 4.921875 -23.65625 4.738281 -23.210938 4.375 -22.859375 C 4.019531 -22.503906 3.578125 -22.328125 3.046875 -22.328125 Z M 3.046875 -22.328125 "/></g></g></g></svg>
