<svg xmlns="http://www.w3.org/2000/svg" xmlns:xlink="http://www.w3.org/1999/xlink" width="40" zoomAndPan="magnify" viewBox="0 0 30 30.000001" height="40" preserveAspectRatio="xMidYMid meet" version="1.0"><defs><g/></defs><g fill="#FDF6EC" fill-opacity="1"><g transform="translate(5.179568, 28.677097)"><g><path d="M 4.71875 -28.625 L 4.71875 -8.53125 L 9.125 -12.40625 L 14.203125 -16.890625 C 14.722656 -17.367188 15.066406 -17.796875 15.234375 -18.171875 C 15.410156 -18.554688 15.195312 -18.75 14.59375 -18.75 L 14.59375 -19.109375 L 18.328125 -19.109375 L 18.328125 -18.75 C 17.921875 -18.75 17.488281 -18.644531 17.03125 -18.4375 C 16.570312 -18.226562 16.148438 -18 15.765625 -17.75 C 15.378906 -17.5 15.046875 -17.253906 14.765625 -17.015625 C 14.492188 -16.773438 14.332031 -16.628906 14.28125 -16.578125 L 10.46875 -13.203125 L 14.984375 -5.546875 L 16.5 -3.015625 C 16.96875 -2.191406 17.390625 -1.539062 17.765625 -1.0625 C 18.140625 -0.59375 18.429688 -0.359375 18.640625 -0.359375 L 18.640625 0 L 13.953125 0 L 13.953125 -0.359375 C 14.140625 -0.359375 14.09375 -0.757812 13.8125 -1.5625 C 13.539062 -2.375 13.035156 -3.410156 12.296875 -4.671875 L 8.375 -11.34375 L 4.71875 -8.125 L 4.71875 -3.40625 C 4.71875 -2.75 4.75 -2.222656 4.8125 -1.828125 C 4.882812 -1.429688 4.972656 -1.117188 5.078125 -0.890625 C 5.179688 -0.671875 5.285156 -0.523438 5.390625 -0.453125 C 5.492188 -0.390625 5.570312 -0.359375 5.625 -0.359375 L 5.625 0 L 1.078125 0 L 1.078125 -0.359375 C 1.128906 -0.359375 1.207031 -0.390625 1.3125 -0.453125 C 1.414062 -0.523438 1.515625 -0.671875 1.609375 -0.890625 C 1.703125 -1.117188 1.785156 -1.429688 1.859375 -1.828125 C 1.941406 -2.222656 1.984375 -2.75 1.984375 -3.40625 L 1.984375 -25.21875 C 1.878906 -25.90625 1.734375 -26.351562 1.546875 -26.5625 C 1.359375 -26.78125 1.226562 -26.890625 1.15625 -26.890625 L 0.984375 -27.25 Z M 4.71875 -28.625 "/></g></g></g></svg>
