<svg xmlns="http://www.w3.org/2000/svg" xmlns:xlink="http://www.w3.org/1999/xlink" width="40" zoomAndPan="magnify" viewBox="0 0 30 30.000001" height="40" preserveAspectRatio="xMidYMid meet" version="1.0">
 <defs>
    <filter id="subtleShadow" x="-20%" y="-20%" width="200%" height="200%">
      <feGaussianBlur in="SourceAlpha" stdDeviation="0.5" result="blur"/>
      <feOffset in="blur" dx="0.5" dy="0.5" result="offsetBlur"/>
      <feComponentTransfer>
        <feFuncA type="linear" slope="0.3"/>
      </feComponentTransfer>
      <feMerge>
        <feMergeNode in="offsetBlur"/>
        <feMergeNode in="SourceGraphic"/>
      </feMerge>
    </filter>
  </defs>
  <g fill="#B7C0EE" fill-opacity="1" filter="url(#subtleShadow)">
    <g transform="translate(5.179568, 28.677097)">
      <g><path d="M 1.34375 -7.015625 C 1 -8.316406 0.921875 -9.597656 1.109375 -10.859375 C 1.296875 -12.128906 1.695312 -13.300781 2.3125 -14.375 C 2.9375 -15.445312 3.75 -16.378906 4.75 -17.171875 C 5.757812 -17.960938 6.910156 -18.53125 8.203125 -18.875 C 9.578125 -19.25 10.898438 -19.335938 12.171875 -19.140625 C 13.441406 -18.941406 14.59375 -18.550781 15.625 -17.96875 C 16.65625 -17.382812 17.539062 -16.640625 18.28125 -15.734375 C 19.019531 -14.835938 19.550781 -13.863281 19.875 -12.8125 C 18.914062 -12.8125 17.890625 -12.769531 16.796875 -12.6875 C 15.703125 -12.613281 14.703125 -12.46875 13.796875 -12.25 C 14.535156 -12.28125 15.21875 -12.15625 15.84375 -11.875 C 16.46875 -11.59375 17.003906 -11.210938 17.453125 -10.734375 C 17.898438 -10.265625 18.253906 -9.710938 18.515625 -9.078125 C 18.785156 -8.441406 18.945312 -7.78125 19 -7.09375 C 19.101562 -5.664062 18.800781 -4.429688 18.09375 -3.390625 C 17.394531 -2.347656 16.472656 -1.53125 15.328125 -0.9375 C 14.179688 -0.34375 12.890625 0 11.453125 0.09375 C 10.023438 0.1875 8.644531 0 7.3125 -0.46875 C 5.976562 -0.945312 4.769531 -1.722656 3.6875 -2.796875 C 2.601562 -3.867188 1.820312 -5.273438 1.34375 -7.015625 Z M 3.6875 -9.875 C 3.769531 -9.101562 3.890625 -8.390625 4.046875 -7.734375 C 4.546875 -5.828125 5.3125 -4.332031 6.34375 -3.25 C 7.375 -2.164062 8.488281 -1.425781 9.6875 -1.03125 C 10.894531 -0.632812 12.109375 -0.546875 13.328125 -0.765625 C 14.546875 -0.992188 15.601562 -1.453125 16.5 -2.140625 C 17.394531 -2.828125 18.046875 -3.707031 18.453125 -4.78125 C 18.867188 -5.851562 18.878906 -7.050781 18.484375 -8.375 C 18.265625 -9.082031 17.914062 -9.726562 17.4375 -10.3125 C 16.96875 -10.894531 16.390625 -11.320312 15.703125 -11.59375 C 15.015625 -11.875 14.234375 -11.976562 13.359375 -11.90625 C 12.492188 -11.84375 11.570312 -11.519531 10.59375 -10.9375 C 9.632812 -10.382812 8.695312 -9.992188 7.78125 -9.765625 C 6.875 -9.546875 6.039062 -9.460938 5.28125 -9.515625 C 4.988281 -9.546875 4.707031 -9.578125 4.4375 -9.609375 C 4.175781 -9.648438 3.925781 -9.738281 3.6875 -9.875 Z M 16.8125 -13 C 16.445312 -13.851562 15.972656 -14.664062 15.390625 -15.4375 C 14.804688 -16.21875 14.148438 -16.882812 13.421875 -17.4375 C 12.691406 -18 11.890625 -18.398438 11.015625 -18.640625 C 10.148438 -18.878906 9.238281 -18.863281 8.28125 -18.59375 C 7.382812 -18.351562 6.628906 -17.941406 6.015625 -17.359375 C 5.410156 -16.785156 4.929688 -16.113281 4.578125 -15.34375 C 4.222656 -14.582031 3.972656 -13.75 3.828125 -12.84375 C 3.679688 -11.945312 3.632812 -11.0625 3.6875 -10.1875 C 4.132812 -9.976562 4.664062 -9.847656 5.28125 -9.796875 C 6.019531 -9.742188 6.832031 -9.828125 7.71875 -10.046875 C 8.601562 -10.273438 9.503906 -10.65625 10.421875 -11.1875 C 11.535156 -11.820312 12.644531 -12.269531 13.75 -12.53125 C 14.863281 -12.789062 15.882812 -12.945312 16.8125 -13 Z M 16.8125 -13 "/></g></g></g></svg>
