<svg xmlns="http://www.w3.org/2000/svg" xmlns:xlink="http://www.w3.org/1999/xlink" width="40" zoomAndPan="magnify" viewBox="0 0 30 30.000001" height="40" preserveAspectRatio="xMidYMid meet" version="1.0">
<defs>
    <filter id="subtleShadow" x="-20%" y="-20%" width="200%" height="200%">
      <feGaussianBlur in="SourceAlpha" stdDeviation="0.5" result="blur"/>
      <feOffset in="blur" dx="0.5" dy="0.5" result="offsetBlur"/>
      <feComponentTransfer>
        <feFuncA type="linear" slope="0.3"/>
      </feComponentTransfer>
      <feMerge>
        <feMergeNode in="offsetBlur"/>
        <feMergeNode in="SourceGraphic"/>
      </feMerge>
    </filter>
  </defs>
  <g fill="#FDF6EC" fill-opacity="1" filter="url(#subtleShadow)">
    <g transform="translate(5.179568, 28.677097)">
      <g><path d="M 1.34375 -7.25 C 1 -8.550781 0.921875 -9.832031 1.109375 -11.09375 C 1.296875 -12.363281 1.695312 -13.535156 2.3125 -14.609375 C 2.9375 -15.679688 3.75 -16.613281 4.75 -17.40625 C 5.757812 -18.195312 6.910156 -18.765625 8.203125 -19.109375 C 9.503906 -19.453125 10.785156 -19.53125 12.046875 -19.34375 C 13.316406 -19.164062 14.492188 -18.765625 15.578125 -18.140625 C 16.660156 -17.515625 17.597656 -16.703125 18.390625 -15.703125 C 19.191406 -14.703125 19.765625 -13.550781 20.109375 -12.25 C 20.453125 -10.957031 20.53125 -9.675781 20.34375 -8.40625 C 20.15625 -7.132812 19.75 -5.960938 19.125 -4.890625 C 18.507812 -3.828125 17.695312 -2.894531 16.6875 -2.09375 C 15.6875 -1.300781 14.539062 -0.734375 13.25 -0.390625 C 11.945312 -0.046875 10.660156 0.03125 9.390625 -0.15625 C 8.128906 -0.34375 6.957031 -0.742188 5.875 -1.359375 C 4.789062 -1.984375 3.847656 -2.796875 3.046875 -3.796875 C 2.253906 -4.804688 1.6875 -5.957031 1.34375 -7.25 Z M 17.40625 -11.546875 C 17.144531 -12.492188 16.734375 -13.460938 16.171875 -14.453125 C 15.617188 -15.441406 14.945312 -16.3125 14.15625 -17.0625 C 13.363281 -17.820312 12.460938 -18.378906 11.453125 -18.734375 C 10.453125 -19.085938 9.394531 -19.125 8.28125 -18.84375 C 7.175781 -18.550781 6.285156 -18 5.609375 -17.1875 C 4.929688 -16.382812 4.429688 -15.457031 4.109375 -14.40625 C 3.796875 -13.363281 3.640625 -12.269531 3.640625 -11.125 C 3.640625 -9.976562 3.773438 -8.925781 4.046875 -7.96875 C 4.304688 -7.019531 4.710938 -6.039062 5.265625 -5.03125 C 5.828125 -4.03125 6.503906 -3.160156 7.296875 -2.421875 C 8.085938 -1.679688 8.984375 -1.125 9.984375 -0.75 C 10.992188 -0.382812 12.054688 -0.359375 13.171875 -0.671875 C 14.273438 -0.960938 15.171875 -1.507812 15.859375 -2.3125 C 16.546875 -3.125 17.046875 -4.050781 17.359375 -5.09375 C 17.679688 -6.132812 17.835938 -7.226562 17.828125 -8.375 C 17.816406 -9.53125 17.675781 -10.585938 17.40625 -11.546875 Z M 17.40625 -11.546875 "/></g></g></g></svg>
