<svg xmlns="http://www.w3.org/2000/svg" xmlns:xlink="http://www.w3.org/1999/xlink" width="40" zoomAndPan="magnify" viewBox="0 0 30 30.000001" height="40" preserveAspectRatio="xMidYMid meet" version="1.0">  <defs>
    <filter id="subtleShadow" x="-20%" y="-20%" width="200%" height="200%">
      <feGaussianBlur in="SourceAlpha" stdDeviation="0.5" result="blur"/>
      <feOffset in="blur" dx="0.5" dy="0.5" result="offsetBlur"/>
      <feComponentTransfer>
        <feFuncA type="linear" slope="0.3"/>
      </feComponentTransfer>
      <feMerge>
        <feMergeNode in="offsetBlur"/>
        <feMergeNode in="SourceGraphic"/>
      </feMerge>
    </filter>
  </defs>
  <g fill="#FDF6EC" fill-opacity="1" filter="url(#subtleShadow)">
    <g transform="translate(5.179568, 28.677097)">
      <g><path d="M 20.125 -25.5 C 20.070312 -25.5 20 -25.460938 19.90625 -25.390625 C 19.8125 -25.316406 19.710938 -25.179688 19.609375 -24.984375 C 19.515625 -24.785156 19.4375 -24.503906 19.375 -24.140625 C 19.3125 -23.773438 19.28125 -23.285156 19.28125 -22.671875 L 19.28125 -3.171875 C 19.28125 -2.578125 19.3125 -2.085938 19.375 -1.703125 C 19.4375 -1.328125 19.515625 -1.039062 19.609375 -0.84375 C 19.710938 -0.644531 19.8125 -0.507812 19.90625 -0.4375 C 20 -0.363281 20.070312 -0.328125 20.125 -0.328125 L 20.125 0 L 15.78125 0 L 15.78125 -0.328125 C 15.832031 -0.328125 15.90625 -0.363281 16 -0.4375 C 16.101562 -0.507812 16.195312 -0.644531 16.28125 -0.84375 C 16.363281 -1.039062 16.441406 -1.328125 16.515625 -1.703125 C 16.585938 -2.085938 16.625 -2.578125 16.625 -3.171875 L 16.625 -15.15625 L 4.5625 -15.15625 L 4.5625 -3.171875 C 4.5625 -2.578125 4.59375 -2.085938 4.65625 -1.703125 C 4.71875 -1.328125 4.796875 -1.039062 4.890625 -0.84375 C 4.992188 -0.644531 5.09375 -0.507812 5.1875 -0.4375 C 5.28125 -0.363281 5.351562 -0.328125 5.40625 -0.328125 L 5.40625 0 L 1.109375 0 L 1.109375 -0.328125 C 1.148438 -0.328125 1.21875 -0.363281 1.3125 -0.4375 C 1.414062 -0.507812 1.507812 -0.644531 1.59375 -0.84375 C 1.6875 -1.039062 1.769531 -1.328125 1.84375 -1.703125 C 1.914062 -2.085938 1.953125 -2.578125 1.953125 -3.171875 L 1.953125 -22.671875 C 1.953125 -23.285156 1.914062 -23.773438 1.84375 -24.140625 C 1.769531 -24.503906 1.6875 -24.785156 1.59375 -24.984375 C 1.507812 -25.179688 1.414062 -25.316406 1.3125 -25.390625 C 1.21875 -25.460938 1.148438 -25.5 1.109375 -25.5 L 1.109375 -25.828125 L 5.40625 -25.828125 L 5.40625 -25.5 C 5.351562 -25.5 5.28125 -25.460938 5.1875 -25.390625 C 5.09375 -25.316406 4.992188 -25.179688 4.890625 -24.984375 C 4.796875 -24.785156 4.71875 -24.503906 4.65625 -24.140625 C 4.59375 -23.773438 4.5625 -23.285156 4.5625 -22.671875 L 4.5625 -15.484375 L 16.625 -15.484375 L 16.625 -22.671875 C 16.625 -23.285156 16.585938 -23.773438 16.515625 -24.140625 C 16.441406 -24.503906 16.363281 -24.785156 16.28125 -24.984375 C 16.195312 -25.179688 16.101562 -25.316406 16 -25.390625 C 15.90625 -25.460938 15.832031 -25.5 15.78125 -25.5 L 15.78125 -25.828125 L 20.125 -25.828125 Z M 20.125 -25.5"/>
</g></g></g></svg>
